<?xml version="1.0" encoding="UTF-8" standalone="no"?>
<!-- Created with Inkscape (http://www.inkscape.org/) -->

<svg
   width="210mm"
   height="210mm"
   viewBox="0 0 210 210"
   version="1.1"
   id="svg5"
   xml:space="preserve"
   inkscape:version="1.2.1 (9c6d41e410, 2022-07-14)"
   sodipodi:docname="kontur logo kek.svg"
   xmlns:inkscape="http://www.inkscape.org/namespaces/inkscape"
   xmlns:sodipodi="http://sodipodi.sourceforge.net/DTD/sodipodi-0.dtd"
   xmlns="http://www.w3.org/2000/svg"
   xmlns:svg="http://www.w3.org/2000/svg"><sodipodi:namedview
     id="namedview7"
     pagecolor="#ffffff"
     bordercolor="#000000"
     borderopacity="0.25"
     inkscape:showpageshadow="2"
     inkscape:pageopacity="0.0"
     inkscape:pagecheckerboard="0"
     inkscape:deskcolor="#d1d1d1"
     inkscape:document-units="mm"
     showgrid="false"
     showguides="true"
     inkscape:zoom="1"
     inkscape:cx="166.5"
     inkscape:cy="409"
     inkscape:window-width="2560"
     inkscape:window-height="1017"
     inkscape:window-x="1272"
     inkscape:window-y="-8"
     inkscape:window-maximized="1"
     inkscape:current-layer="layer1"><sodipodi:guide
       position="147.96774,203"
       orientation="0,1"
       id="guide5241"
       inkscape:locked="false"
       inkscape:label=""
       inkscape:color="rgb(0,134,229)" /><sodipodi:guide
       position="151.87096,6.9999998"
       orientation="0,1"
       id="guide5243"
       inkscape:locked="false"
       inkscape:label=""
       inkscape:color="rgb(0,134,229)" /></sodipodi:namedview><defs
     id="defs2"><linearGradient
       id="linearGradient950"
       inkscape:swatch="solid"><stop
         style="stop-color:#ffffff;stop-opacity:1;"
         offset="0"
         id="stop948" /></linearGradient><rect
       x="99.243078"
       y="669.22022"
       width="578.02388"
       height="144.84125"
       id="rect4291" /><rect
       x="139.47676"
       y="598.14072"
       width="473.41631"
       height="134.11227"
       id="rect3577" /></defs><g
     inkscape:label="Réteg 1"
     inkscape:groupmode="layer"
     id="layer1"><path
       id="rect5234"
       style="fill:none;fill-opacity:1;fill-rule:nonzero;stroke:#2e7aae;stroke-width:4;stroke-dasharray:none;stroke-opacity:1"
       d="M 21.677655 71.008322 C 31.15966 43.246004 64.610542 22.842209 104.6456 22.842209 L 104.6456 22.842209 L 105.3544 22.842209 C 152.80961 22.842209 191.0138 51.510238 191.0138 87.12014 L 191.0138 101.21081 " /><path
       id="path1742"
       style="fill:none;fill-opacity:1;fill-rule:nonzero;stroke:#2e7aae;stroke-width:4;stroke-dasharray:none;stroke-opacity:1"
       d="M 19.848472 132.07552 C 19.280136 129.07348 18.986198 126.00337 18.986198 122.87986 L 18.986198 87.12014 C 18.986198 81.7058 19.869401 76.451928 21.534034 71.434922 " /><path
       id="path1747"
       style="fill:none;fill-opacity:1;fill-rule:nonzero;stroke:#2e7aae;stroke-width:4;stroke-dasharray:none;stroke-opacity:1"
       d="M 165.75781 168.53857 C 150.29255 180.059 128.96878 187.15779 105.3544 187.15779 L 104.6456 187.15779 C 82.902578 187.15779 63.101545 181.13952 48.027506 171.19276 " /><path
       id="path1729"
       style="fill:none;fill-opacity:1;fill-rule:nonzero;stroke:#2e7aae;stroke-width:4;stroke-dasharray:none;stroke-opacity:1"
       d="M 190.08238 132.43358 C 189.47298 135.52792 188.57182 138.54907 187.40042 141.48085 " /><path
       style="fill:none;fill-opacity:1;stroke:#2e7aae;stroke-width:4;stroke-dasharray:none;stroke-opacity:1"
       d="m 40.898442,171.15112 c -1.074756,-0.14179 -2.648322,-0.26758 -3.496813,-0.27953 -0.848491,-0.012 -2.144369,-0.11226 -2.879728,-0.2229 -0.73536,-0.11064 -2.308925,-0.34825 -3.496813,-0.52802 -1.187888,-0.17977 -2.925633,-0.40366 -3.861656,-0.49752 -2.012243,-0.2018 -2.491633,-0.46801 -3.894069,-2.16247 -1.757793,-2.12381 -2.08455,-3.22248 -1.505668,-5.06258 0.367933,-1.16955 0.934885,-1.78756 1.786426,-1.94731 0.68632,-0.12876 0.687035,-0.13015 0.687035,-1.33722 0,-2.38827 1.067916,-5.97577 2.040986,-6.85639 0.235044,-0.21271 0.427353,-0.56261 0.427353,-0.77754 0,-0.36071 0.564969,-1.69732 1.025092,-2.42518 0.107276,-0.1697 0.376696,-0.72507 0.598711,-1.23417 0.222015,-0.50909 0.826829,-1.33829 1.344032,-1.84266 0.517202,-0.50436 0.940368,-1.01844 0.940368,-1.14239 0,-0.35434 1.317655,-1.54024 1.711371,-1.54024 0.195123,0 0.756444,-0.37025 1.24738,-0.82277 0.490936,-0.45253 0.980645,-0.82278 1.088242,-0.82278 0.107598,0 0.461674,-0.27769 0.786837,-0.61709 0.325162,-0.3394 0.746529,-0.61708 0.936371,-0.61708 0.189841,0 0.565915,-0.16713 0.835719,-0.37141 0.269804,-0.20427 0.882607,-0.49633 1.361784,-0.64903 0.479177,-0.15269 1.025758,-0.44837 1.214626,-0.65706 0.188867,-0.2087 0.501691,-0.37945 0.695165,-0.37945 0.193473,0 0.592363,-0.18925 0.886421,-0.42056 0.820633,-0.64551 3.043968,-0.86254 10.233177,-0.99893 l 6.495604,-0.12322 0.72103,-0.61709 0.721031,-0.61708 -0.08675,-1.74841 c -0.04772,-0.96162 -0.101788,-2.40924 -0.120161,-3.21693 -0.03573,-1.57065 -0.357066,-2.19317 -1.322688,-2.56244 -0.256578,-0.0981 -0.551696,-0.40248 -0.655821,-0.67635 -0.104125,-0.27387 -0.281245,-0.55476 -0.393599,-0.6242 -0.184498,-0.11402 -2.013171,-3.74315 -2.39223,-4.74754 -0.3282,-0.86962 -0.584747,-4.05161 -0.600608,-7.4494 -0.01936,-4.14577 0.0235,-4.25147 1.723419,-4.25147 0.743115,0 1.158749,0.11589 1.495809,0.41706 0.256713,0.22938 0.801111,0.56944 1.209771,0.75569 0.408661,0.18625 0.859667,0.47919 1.002236,0.65098 0.142572,0.17178 0.482143,0.31233 0.754606,0.31233 0.75139,0 2.430929,1.84534 2.955418,3.24716 0.23742,0.63456 0.74511,1.58073 1.128202,2.10261 0.383092,0.52187 0.926754,1.40606 1.208139,1.96487 0.543561,1.07946 1.329303,2.0427 1.514897,1.8571 0.06145,-0.0615 0.126813,-2.54362 0.145249,-5.51593 0.03684,-5.93921 0.184538,-6.86917 1.271127,-8.00333 0.460938,-0.48111 0.73785,-0.58915 1.510039,-0.58915 0.872313,0 1.025708,0.0837 1.979367,1.0799 2.080085,2.17289 2.638792,3.46679 2.997655,6.9422 0.261745,2.53487 0.263545,3.14 0.01376,4.62813 -0.50712,3.02137 -0.706551,3.71075 -1.234733,4.26817 -0.508769,0.53693 -0.514344,0.56566 -0.109742,0.56566 0.678826,0 2.594635,0.65354 3.044681,1.03863 0.226265,0.19361 0.781641,0.4776 1.23417,0.63109 0.790504,0.26813 2.982575,2.18074 2.982575,2.60233 0,0.11158 0.139972,0.31903 0.311048,0.46101 0.171077,0.14198 0.586481,0.83527 0.923122,1.54063 0.33664,0.70537 0.752045,1.39866 0.923121,1.54064 0.171077,0.14198 0.311048,0.41945 0.311048,0.61661 0,0.19715 0.161985,0.57987 0.359966,0.85047 0.550308,0.75218 0.874203,1.37935 0.874203,1.69274 0,0.15597 0.202992,0.54165 0.451091,0.85706 0.528628,0.67204 0.575841,1.77302 0.207131,4.83008 -0.129627,1.07475 -0.238193,1.97724 -0.241258,2.00552 -0.0031,0.0283 -0.130073,0.0514 -0.282236,0.0514 -0.152164,0 -0.444198,0.18513 -0.648965,0.41139 -0.204767,0.22627 -0.482455,0.41139 -0.617085,0.41139 -0.134629,0 -0.408324,0.18072 -0.608208,0.40159 -0.199884,0.22087 -0.846647,0.50189 -1.437246,0.6245 -1.265947,0.26281 -2.38581,1.28431 -2.786822,2.54204 -0.138752,0.43518 -0.380419,1.03684 -0.537039,1.33701 -0.156618,0.30018 -0.285329,0.77062 -0.286027,1.04542 -0.0012,0.47455 -0.214328,1.24948 -1.390014,5.05412 -0.492322,1.59321 -0.578868,1.71754 -2.720477,3.9082 -1.216589,1.24446 -2.266369,2.42089 -2.332845,2.61429 -0.185369,0.5393 0.459573,2.2524 1.096744,2.91319 0.492462,0.51072 0.78473,0.61185 2.156256,0.74614 2.000947,0.19592 2.680947,0.73538 2.645204,2.09851 -0.03356,1.27999 -0.772222,1.80649 -2.541558,1.81156 -1.812256,0.005 -2.181209,0.13476 -2.650977,0.93095 -0.535656,0.90787 -1.359094,1.02199 -5.556732,0.77009 -3.006531,-0.18042 -3.352971,-0.24281 -4.368258,-0.78674 -3.212339,-1.72098 -2.647392,-1.61248 -9.176683,-1.76243 -2.041585,-0.0469 -2.190455,-0.0223 -2.549464,0.42106 -0.2097,0.25897 -0.381272,0.58331 -0.381272,0.72076 0,0.44643 -0.951999,1.15851 -1.667486,1.24725 -1.813084,0.22486 -5.621531,0.21684 -7.383089,-0.0155 z"
       id="path916" /><path
       style="fill:none;stroke:#2e7aae;stroke-width:4;stroke-dasharray:none;stroke-opacity:1"
       d="m 181.06367,123.4351 c -0.98656,-0.93296 -1.95677,-2.20498 -2.99895,-3.93186 -0.74073,-1.22739 -2.48388,-5.30712 -3.46726,-8.11492 -0.61173,-1.74664 -1.57832,-4.00548 -2.14799,-5.01966 -2.47359,-4.40372 -2.2171,-3.62848 -2.2171,-6.701113 0,-2.384109 0.0834,-3.080088 0.63493,-5.295268 0.55989,-2.248973 0.62323,-2.792525 0.5359,-4.599227 -0.11299,-2.337789 -0.37001,-3.346189 -1.05618,-4.143909 -1.39102,-1.617154 -5.09673,0.472094 -8.49313,4.788355 -0.6078,0.772417 -1.4706,1.704038 -1.91733,2.070268 l -0.81224,0.665873 h -2.3673 c -2.30212,0 -2.39599,-0.01787 -3.40965,-0.648929 -2.65476,-1.652745 -7.09296,-6.943257 -8.60657,-10.259381 -0.74652,-1.635545 -1.26551,-3.334146 -1.67031,-5.46683 -0.32899,-1.733259 -0.33839,-2.131554 -0.0918,-3.892797 0.15104,-1.079091 0.3134,-2.837863 0.36078,-3.908382 0.085,-1.920231 0.0774,-1.958416 -0.56297,-2.840175 -0.8493,-1.169409 -1.10069,-0.915279 -1.19722,1.210242 -0.0407,0.896464 -0.12804,1.629933 -0.19407,1.629933 -0.066,0 -0.45302,-0.357058 -0.85996,-0.793463 -1.00578,-1.078606 -1.53894,-2.873112 -1.5334,-5.161112 0.004,-1.558311 0.0782,-1.9047 0.66587,-3.098404 0.3639,-0.739173 0.66163,-1.644633 0.66163,-2.012134 0,-1.908732 1.52234,-4.07022 3.43614,-4.878779 2.8251,-1.193572 7.52112,-0.579682 10.32414,1.349627 2.15262,1.48165 3.95805,3.980828 4.99087,6.908645 0.95171,2.697889 1.8746,4.061214 4.19586,6.198301 5.76387,5.306528 7.11132,7.468208 11.17162,17.92226 0.62517,1.609632 1.4481,3.664185 1.82873,4.565675 0.38064,0.90149 0.93599,2.284457 1.23414,3.073261 0.57189,1.513085 1.95135,6.700514 1.95135,7.338043 0,0.35062 -0.0349,0.3474 -0.53984,-0.0498 -0.29691,-0.23356 -0.62771,-0.424642 -0.7351,-0.424642 -0.28113,0 -0.01,1.427762 0.68942,3.628632 0.59946,1.88668 1.80939,6.85513 1.81062,7.43511 8.2e-4,0.36852 -1.10112,-0.75643 -1.90295,-1.94274 -0.3033,-0.44873 -0.55145,-0.69334 -0.55145,-0.54356 0,0.55802 1.91256,8.04821 3.00239,11.75833 0.62081,2.11342 1.0967,3.93877 1.05752,4.0563 -0.0392,0.11754 -0.58777,-0.27476 -1.21909,-0.87178 z"
       id="path946" /><path
       style="fill:none;fill-opacity:1;stroke:#2e7aae;stroke-width:4;stroke-dasharray:none;stroke-opacity:1"
       d="m 21.012894,165.39932 c -0.284776,-0.1589 -0.799936,-0.29222 -1.1448,-0.29625 -1.084774,-0.0127 -2.168963,-1.15614 -2.168963,-2.28749 0,-0.24021 -0.07462,-0.39061 -0.165821,-0.33425 -0.223541,0.13816 -0.610157,-1.35242 -0.740414,-2.85462 -0.05834,-0.67279 -0.217931,-1.29239 -0.354649,-1.37688 -0.162052,-0.10016 -0.20477,-0.43133 -0.122724,-0.95141 0.105448,-0.66841 0.04447,-0.87556 -0.376056,-1.2775 -0.623776,-0.59621 -1.13988,-1.60693 -1.13988,-2.2323 0,-0.26055 -0.0862,-0.527 -0.191545,-0.59211 -0.105351,-0.0651 -0.1832,-1.15072 -0.172999,-2.41247 0.01281,-1.58485 -0.05867,-2.3418 -0.231231,-2.44845 -0.290076,-0.17928 -0.08967,-1.25754 0.589012,-3.16905 0.231541,-0.65214 0.420984,-1.36306 0.420984,-1.57981 0,-0.21676 0.134914,-0.717 0.299809,-1.11165 0.164896,-0.39465 0.252487,-0.89851 0.194647,-1.11969 -0.05784,-0.22118 0.224628,-1.31321 0.627707,-2.42674 1.091023,-3.01399 3.096005,-6.56779 4.984279,-8.83456 0.616789,-0.74042 1.555798,-2.12607 2.086688,-3.07922 0.955522,-1.71554 1.753278,-3.00401 2.159464,-3.48779 0.115515,-0.13758 0.210028,-0.29409 0.210028,-0.34779 0,-0.24767 1.828017,-2.81301 2.599372,-3.64782 0.473637,-0.51259 1.100962,-1.41546 1.394056,-2.00637 0.293094,-0.59091 0.912468,-1.55458 1.376388,-2.14148 0.705035,-0.89194 0.843491,-1.2209 0.843491,-2.00407 0,-0.99871 -0.706442,-2.54671 -1.162212,-2.54671 -0.394085,0 -1.088375,-0.99371 -1.358113,-1.94381 -0.248818,-0.87641 -0.586329,-1.45041 -0.586329,-0.99715 0,0.13669 -0.0932,0.24853 -0.20711,0.24853 -0.113911,0 -0.20711,-0.18177 -0.20711,-0.40393 0,-0.22216 -0.135014,-0.47949 -0.300031,-0.57183 -0.295953,-0.16563 -0.669298,-1.71297 -0.876442,-3.63244 -0.05839,-0.54108 -0.192369,-0.98378 -0.297728,-0.98378 -0.105359,0 -0.298333,-0.23433 -0.428832,-0.52075 -0.169093,-0.37112 -0.346347,-0.48613 -0.61689,-0.40026 -0.348884,0.11073 -0.379621,-0.0304 -0.379621,-1.74267 0,-1.234052 -0.08958,-1.955566 -0.265304,-2.136837 -0.145918,-0.150526 -0.482403,-0.645942 -0.747744,-1.100926 -0.390783,-0.670078 -0.461733,-1.024212 -0.373449,-1.863992 l 0.108991,-1.036748 -0.369254,0.828441 -0.369253,0.828441 -0.07932,-1.950351 c -0.05354,-1.316517 -0.163456,-1.978375 -0.33821,-2.036584 -0.142388,-0.04743 -0.258888,-0.290892 -0.258888,-0.541028 0,-0.250137 -0.186399,-0.589143 -0.41422,-0.753349 -0.348352,-0.251077 -0.414221,-0.536144 -0.414221,-1.792676 0,-0.821768 0.09555,-1.74545 0.212345,-2.05263 0.208657,-0.548811 0.204002,-0.553042 -0.268173,-0.243661 -0.471687,0.309062 -0.480809,0.300999 -0.496385,-0.438749 -0.02026,-0.962221 -0.228544,-4.034499 -0.282766,-4.170914 -0.02264,-0.05696 -0.02519,-0.262994 -0.0057,-0.457864 0.01952,-0.194869 -0.07012,-0.551637 -0.199193,-0.792818 -0.18393,-0.343677 -0.161023,-0.602978 0.105922,-1.199018 0.187333,-0.41828 0.420955,-0.946909 0.51916,-1.17473 0.203946,-0.473124 0.165495,-1.87163 -0.05759,-2.094718 -0.229551,-0.229551 -0.179417,-0.864093 0.18219,-2.305959 0.311527,-1.242184 0.309361,-1.344582 -0.03653,-1.726786 -0.630575,-0.696777 -0.153827,-0.856355 1.824105,-0.610568 2.718818,0.337853 4.456529,1.053902 7.78859,3.209401 0.798989,0.516864 1.689012,0.939752 1.977829,0.939752 0.581585,0 0.777116,0.171583 1.43726,1.261228 1.058907,1.747849 1.711186,2.663231 1.974138,2.770422 0.154587,0.06302 0.655684,0.0137 1.113551,-0.109588 0.790442,-0.212845 5.052874,-0.132484 5.284997,0.09964 0.05719,0.05719 0.387456,-0.0426 0.733922,-0.22177 0.488857,-0.252798 1.120498,-0.308928 2.820338,-0.250627 l 2.190402,0.07512 0.133108,-1.080991 c 0.142707,-1.158963 0.679421,-2.200644 2.324236,-4.510985 1.04233,-1.46408 3.635454,-4.588311 4.125657,-4.970647 0.146048,-0.11391 0.6879,-0.579908 1.204118,-1.035551 2.337448,-2.063163 3.141736,-2.586983 3.973849,-2.588104 0.408858,-5.51e-4 0.626736,0.136144 0.755089,0.473736 0.09922,0.26098 0.320588,0.590848 0.491917,0.733041 0.17993,0.149328 0.302688,0.569831 0.290622,0.995514 -0.01377,0.486126 0.09554,0.802142 0.321172,0.928411 0.7086,0.396554 0.985393,0.82887 0.857343,1.339064 -0.06978,0.278017 -0.01555,0.639602 0.12048,0.803522 0.136138,0.164037 0.185403,0.493212 0.109572,0.732135 -0.07578,0.238754 -0.04927,0.546125 0.0589,0.683048 0.108173,0.136921 0.525304,1.193797 0.926959,2.348612 0.608622,1.749876 0.714133,2.301923 0.633353,3.313764 -0.151267,1.894792 -0.09594,2.306683 0.578815,4.309164 0.617603,1.832858 1.009425,4.05024 0.715697,4.05024 -0.08103,0 -0.291562,-0.144237 -0.467852,-0.320528 -0.516286,-0.516287 -0.534707,-0.222351 -0.07861,1.254326 0.508872,1.647531 0.576573,3.726415 0.129504,3.976608 -0.2487,0.139179 -0.268323,0.49685 -0.116217,2.118353 0.148003,1.577795 0.123549,2.092367 -0.127866,2.690605 -0.492034,1.170777 -0.938814,3.108532 -1.053974,4.571244 -0.0583,0.740415 -0.235352,1.597885 -0.393462,1.905485 -0.15811,0.3076 -0.287473,0.82486 -0.287473,1.14946 0,0.32461 -0.103205,0.6934 -0.229343,0.81954 -0.126139,0.12614 -0.297096,0.54088 -0.379903,0.92164 -0.09076,0.41733 -0.259475,0.66739 -0.424785,0.62959 -0.416092,-0.0952 -0.574347,0.30902 -0.730736,1.86626 -0.116736,1.1624 -0.1938,1.37888 -0.42311,1.18857 -0.220721,-0.18318 -0.309006,-0.11863 -0.41492,0.30336 -0.074,0.29483 -0.260013,0.53606 -0.413368,0.53606 -0.521899,0 -0.647513,1.90495 -0.195576,2.96591 0.144894,0.34015 0.08191,0.36256 -0.643817,0.22905 -0.442433,-0.0814 -1.194013,-0.41416 -1.67018,-0.73948 -0.476165,-0.32532 -0.923809,-0.59149 -0.994761,-0.59149 -0.07095,0 -0.471892,-0.233 -0.89098,-0.51778 -0.988773,-0.67188 -1.391118,-0.65278 -2.145798,0.1019 l -0.619672,0.61968 0.103582,3.26364 c 0.107287,3.38037 0.37518,6.27313 0.647478,6.99163 1.032575,2.72458 2.846728,5.60548 4.017955,6.38057 l 0.84523,0.55934 -0.0168,1.60425 c -0.0092,0.88233 0.03724,2.44304 0.103288,3.46823 0.102424,1.58983 0.06686,1.92492 -0.241778,2.27822 -0.919866,1.05295 -0.750373,1.02745 -7.791736,1.17239 -8.759704,0.18031 -8.85821,0.19654 -12.032831,1.98331 -0.227821,0.12823 -1.066618,0.53621 -1.863992,0.90662 -1.372555,0.63762 -2.223674,1.20238 -3.787472,2.51319 -0.37445,0.31387 -0.986833,0.69853 -1.36085,0.85481 -0.374018,0.15627 -1.046246,0.72173 -1.493839,1.25656 -0.447594,0.53483 -1.293154,1.52577 -1.879021,2.20209 -0.585868,0.67632 -1.127438,1.48536 -1.20349,1.79787 -0.07605,0.31252 -0.364212,0.91361 -0.640356,1.33576 -0.276143,0.42216 -0.584621,1.13493 -0.685507,1.58394 -0.100886,0.44901 -0.466565,1.17541 -0.812619,1.61422 -0.87738,1.11253 -1.70257,4.16076 -1.70257,6.28922 0,1.12457 -0.04073,1.23969 -0.438587,1.23969 -0.241222,0 -0.791463,0.35288 -1.222758,0.78417 -0.972156,0.97216 -1.368444,2.23228 -1.027192,3.26629 0.128827,0.39035 0.203953,0.84379 0.166945,1.00765 -0.05794,0.25655 -0.139203,0.2578 -0.585062,0.009 z"
       id="path360" /><path
       style="fill:none;fill-opacity:1;stroke:#2e7aae;stroke-width:4;stroke-dasharray:none;stroke-opacity:1"
       d="m 112.12277,171.32895 c -3.24224,-0.24952 -4.58388,-0.94157 -6.30039,-3.24992 l -1.01278,-1.36199 -1.31213,-0.13443 c -0.72167,-0.0739 -1.54372,-0.0863 -1.82677,-0.0274 -0.28306,0.0589 -0.74623,0.15525 -1.02927,0.21414 -0.3389,0.0705 -0.727667,0.45329 -1.13854,1.12105 -0.343153,0.55769 -0.684838,1.01441 -0.7593,1.01493 -0.07447,6.1e-4 -0.427363,0.27461 -0.784217,0.60909 -2.08072,1.95027 -7.424322,2.30921 -14.026798,0.9422 -2.067949,-0.42816 -3.971093,-1.14852 -3.97719,-1.50542 -0.0042,-0.24625 -1.59493,-1.88127 -1.830302,-1.88127 -0.120216,0 -0.301528,0.20638 -0.402915,0.45862 -0.165403,0.4115 -0.185667,0.3881 -0.19726,-0.22781 -0.0097,-0.51585 -0.209559,-0.88306 -0.804253,-1.47775 -0.716961,-0.71697 -0.891261,-0.79134 -1.854606,-0.79134 -1.357726,0 -2.336272,-0.46471 -2.715686,-1.28967 -0.556287,-1.20954 -0.771596,-2.13313 -0.629377,-2.69977 0.08043,-0.32046 1.122485,-1.58773 2.405244,-2.92508 2.205791,-2.29966 2.275608,-2.40111 2.746089,-3.99028 0.265515,-0.89684 0.654783,-2.17584 0.86504,-2.84221 0.210257,-0.66638 0.382285,-1.42812 0.382285,-1.69277 0,-0.26465 0.176742,-0.86915 0.392759,-1.34333 0.216017,-0.47419 0.457574,-1.12041 0.536794,-1.43605 0.213699,-0.85144 1.378752,-1.91602 2.277735,-2.0813 1.049257,-0.19292 3.903821,-2.03896 4.019892,-2.59967 0.04989,-0.241 0.139484,-0.98852 0.199098,-1.66116 0.05961,-0.67263 0.166785,-1.5749 0.238158,-2.00503 0.124053,-0.74762 -0.19729,-1.68465 -1.199703,-3.49832 -0.123921,-0.22422 -0.46887,-0.86627 -0.766555,-1.4268 -1.43698,-2.70577 -1.840642,-3.40731 -2.597148,-4.51366 -0.448864,-0.65644 -1.077984,-1.43586 -1.398045,-1.73203 -0.782003,-0.72365 -4.35041,-2.42815 -5.369562,-2.56484 -0.965445,-0.1295 -1.021578,-0.39384 -0.272634,-1.28391 0.306257,-0.36396 0.619145,-1.06282 0.714243,-1.5953 0.46096,-2.58106 0.617973,-3.64157 0.60805,-4.10694 -0.01198,-0.56184 -0.367664,-3.87696 -0.564813,-5.26429 -0.107208,-0.75443 -0.06136,-0.9268 0.316972,-1.1918 0.384055,-0.269 0.438757,-0.48839 0.415356,-1.66586 -0.01482,-0.74583 -0.02354,-1.49364 -0.01937,-1.6618 0.01966,-0.793 -0.242742,-2.57222 -0.409577,-2.77714 -0.105296,-0.12934 -0.13604,-1.37332 -0.07052,-2.8536 0.06388,-1.44336 0.135383,-3.128771 0.158888,-3.745351 0.02351,-0.616581 0.191575,-1.450655 0.373487,-1.853501 0.181913,-0.402844 0.435646,-1.221554 0.563851,-1.819356 0.128206,-0.597801 0.406352,-1.368873 0.618104,-1.713493 0.211752,-0.344619 0.452404,-0.993471 0.534782,-1.441893 0.08238,-0.448421 0.295256,-1.038753 0.473061,-1.311848 0.257615,-0.395677 0.328801,-1.158438 0.350457,-3.755141 0.03154,-3.782575 -0.164325,-5.87107 -0.639011,-6.813546 -0.267817,-0.531743 -0.28638,-0.731519 -0.08997,-0.968184 0.172779,-0.208186 0.183713,-0.375101 0.03622,-0.55298 -0.287706,-0.346989 -0.24027,-2.146255 0.06322,-2.398133 0.255303,-0.211884 0.167509,-1.219816 -0.10625,-1.219816 -0.08626,0 -0.309181,-0.321029 -0.495372,-0.713398 -0.186191,-0.392369 -0.421793,-0.713399 -0.523559,-0.713399 -0.101766,0 -0.231121,-0.298098 -0.287456,-0.662441 -0.05634,-0.364343 -0.244123,-1.487945 -0.417307,-2.496895 -0.353035,-2.056742 -0.381459,-3.938538 -0.08467,-5.605273 0.341455,-1.917542 0.266057,-3.351866 -0.266275,-5.065455 -0.149467,-0.481138 -0.141383,-1.475654 0.02734,-3.363165 0.633606,-7.088338 1.410817,-12.107394 2.103637,-13.584817 0.566417,-1.207873 1.798544,-2.811938 2.571246,-3.347421 0.702167,-0.486602 0.980053,-0.562322 1.746588,-0.475923 1.114781,0.125652 3.430424,1.598589 4.636461,2.949165 0.821322,0.919755 1.674006,1.985512 2.330179,2.91246 0.43647,0.61658 1.151803,1.61238 1.589631,2.212888 0.437827,0.600509 1.050598,1.630074 1.361711,2.287923 0.311113,0.65785 0.920249,1.72581 1.353637,2.373245 0.433386,0.647435 1.036843,1.681629 1.341018,2.298209 0.720812,1.461129 1.361939,2.356636 3.219779,4.497283 0.29515,0.340077 0.685014,1.006847 0.866366,1.481708 0.457264,1.197329 1.243769,1.61996 3.176273,1.706783 0.84456,0.03795 1.99418,0.148646 2.55471,0.246002 0.56053,0.09736 1.93637,0.132417 3.05742,0.07792 1.75785,-0.08546 2.14458,-0.171143 2.81087,-0.622742 0.96112,-0.651429 1.97909,-1.792624 1.97909,-2.218653 0,-0.315771 0.26706,-0.660634 1.57967,-2.039877 0.36434,-0.382839 0.66244,-0.784736 0.66244,-0.893104 0,-0.108369 0.0917,-0.197034 0.20383,-0.197034 0.11211,0 0.20383,-0.183446 0.20383,-0.407657 0,-0.22421 0.0961,-0.407656 0.21367,-0.407656 0.11751,0 0.32389,-0.252237 0.45861,-0.560527 0.13472,-0.30829 0.63477,-1.128761 1.11122,-1.823269 0.47644,-0.694508 0.86627,-1.327073 0.86627,-1.4057 0,-0.20656 1.2866,-2.113948 2.13237,-3.161237 1.02209,-1.265625 0.98902,-1.21984 1.53111,-2.119618 1.76823,-2.934959 6.05353,-6.853279 8.04056,-7.351991 1.01614,-0.255035 3.00074,1.254868 3.38767,2.577373 0.66694,2.279554 1.24391,5.402278 1.41762,7.672547 0.10965,1.432986 0.35241,4.14093 0.53948,6.017653 0.28427,2.85189 0.30041,3.739843 0.0983,5.407314 -0.13299,1.0973 -0.23415,3.781042 -0.2248,5.96387 0.0152,3.560576 -0.0278,4.094567 -0.41811,5.191749 -0.23931,0.672633 -0.69962,2.503358 -1.02291,4.068277 -0.5552,2.687476 -0.56856,2.866576 -0.24084,3.228703 0.32322,0.357155 0.32374,0.400373 0.008,0.631502 -0.20968,0.153326 -0.27659,0.349577 -0.17514,0.513724 0.1762,0.285101 0.0604,0.99718 -0.22121,1.360298 -0.0949,0.122419 -0.11448,0.280718 -0.0434,0.351773 0.071,0.07106 0.0168,0.264591 -0.12053,0.430079 -0.13917,0.167692 -0.18969,0.490005 -0.11412,0.728105 0.0746,0.234971 0.0385,0.544241 -0.0802,0.68727 -0.12056,0.14526 -0.26008,1.647985 -0.31609,3.404339 -0.10128,3.176563 -0.004,4.031824 0.76213,6.711281 0.17634,0.616581 0.37464,1.946559 0.44068,2.955508 0.066,1.008949 0.17097,2.614096 0.23317,3.566993 0.0622,0.9529 0.0923,2.28287 0.067,2.95551 -0.0254,0.67263 -0.0558,1.54399 -0.0676,1.93636 -0.0118,0.39237 0.0878,1.4346 0.22139,2.31607 0.21582,1.42446 0.19715,1.80976 -0.16794,3.46508 -0.22592,1.02432 -0.41506,2.48154 -0.42032,3.23825 -0.005,0.75671 -0.0961,1.37584 -0.20187,1.37584 -0.10577,0 -0.003,0.2664 0.22922,0.59199 0.23185,0.3256 0.42154,0.82076 0.42154,1.10036 0,0.2796 0.27517,1.03147 0.61148,1.67081 0.33632,0.63935 0.61149,1.28071 0.61149,1.42524 0,0.14453 0.18143,0.66262 0.40318,1.15131 0.22175,0.48869 0.40519,1.28064 0.40765,1.75988 0.002,0.47925 0.1804,1.37188 0.39541,1.98362 0.31988,0.91014 0.39276,1.69921 0.40106,4.34229 0.01,3.08141 0.0395,3.3137 0.64752,5.04845 0.35056,1.00014 0.90387,2.25548 1.22956,2.78967 0.3257,0.53419 0.59218,1.06635 0.59218,1.18259 0,0.11623 0.17819,0.55054 0.39597,0.96512 0.21779,0.41458 0.57461,1.16653 0.79294,1.67101 0.21833,0.50447 0.58645,1.0883 0.81803,1.2974 0.25037,0.22605 0.47612,0.76314 0.55688,1.32488 0.0747,0.51959 0.2432,1.08229 0.37446,1.25045 0.65829,0.84339 1.08365,2.30946 1.36018,4.68805 0.66069,5.68311 0.97213,8.98617 1.13163,12.00188 0.12627,2.38732 0.0882,2.46169 -1.26315,2.46679 -0.6924,0.003 -0.9824,0.14798 -1.78349,0.894 -0.83534,0.7779 -0.95665,0.99549 -0.95665,1.71586 0,1.12319 -0.1738,1.54467 -0.51885,1.2583 -0.19278,-0.16 -0.79766,-0.16006 -2.16735,-2.1e-4 -1.04496,0.12194 -3.53667,0.27981 -5.53711,0.35083 l -3.63718,0.12911 -0.83025,0.69365 c -1.51736,1.26772 -2.82064,1.77197 -5.69608,2.20386 -2.1263,0.31936 -5.61689,0.34759 -9.16998,0.0741 z m 23.84831,-60.05192 c -0.0957,-1.49478 0.0543,-3.3322 0.26156,-3.20408 0.24646,0.15232 0.24019,3.90568 -0.007,4.05832 -0.10765,0.0665 -0.21992,-0.30988 -0.25478,-0.85424 z"
       id="path918" /><path
       style="fill:none;fill-opacity:1;stroke:#2e7aae;stroke-width:4;stroke-dasharray:none;stroke-opacity:1"
       d="m 154.28461,170.74002 c -0.11373,-0.0471 -0.55362,-0.14363 -0.97752,-0.21447 -0.42391,-0.0709 -1.18525,-0.44522 -1.69188,-0.83194 l -0.92114,-0.70312 -3.37448,0.21527 c -4.48689,0.28623 -6.37537,0.16053 -7.18362,-0.47818 -0.54511,-0.43076 -0.61525,-0.61381 -0.62541,-1.63201 -0.0111,-1.10768 0.0244,-1.18284 1.03751,-2.2013 0.96978,-0.97488 1.10824,-1.04652 1.83431,-0.94914 0.43194,0.0579 0.84242,0.013 0.91219,-0.0999 0.26275,-0.42515 0.24308,-4.77818 -0.0228,-5.04406 -0.17162,-0.17162 -0.25723,-0.96203 -0.25723,-2.37496 0,-1.16475 -0.0856,-2.17065 -0.19025,-2.23532 -0.10464,-0.0647 -0.17625,-0.84902 -0.15913,-1.743 0.0187,-0.97393 -0.065,-1.74119 -0.2086,-1.91427 -0.1351,-0.16278 -0.23047,-0.89889 -0.21852,-1.68667 0.0125,-0.82193 -0.0788,-1.49782 -0.22152,-1.64054 -0.1335,-0.13349 -0.24272,-0.5498 -0.24272,-0.92512 0,-0.37533 -0.0931,-0.68241 -0.20679,-0.68241 -0.11374,0 -0.20886,-0.11632 -0.21139,-0.25849 -0.003,-0.14216 -0.18657,-0.49112 -0.40898,-0.77546 -0.22241,-0.28434 -0.40645,-0.82486 -0.40898,-1.20117 -0.003,-0.44463 -0.22007,-0.95231 -0.61997,-1.44993 -0.51198,-0.63709 -0.59504,-0.89104 -0.49435,-1.51147 0.0691,-0.42586 -0.0154,-1.2231 -0.19693,-1.8587 -1.3545,-4.74167 -1.60864,-12.41976 -0.52584,-15.8865 0.50307,-1.61065 0.41527,-2.24004 -0.5911,-4.23737 -0.40498,-0.80373 -1.01924,-2.25231 -1.36502,-3.21906 -0.61436,-1.71761 -0.62765,-1.83556 -0.58238,-5.16975 0.0408,-3.00374 0.12159,-3.71996 0.67533,-5.98523 0.413,-1.68953 0.58157,-2.79024 0.49089,-3.20525 -0.076,-0.34763 -0.21159,-2.074415 -0.3014,-3.837301 -0.0898,-1.762886 -0.32221,-4.089275 -0.51644,-5.169753 -0.63004,-3.5048 -0.30114,-7.067523 0.73021,-7.909724 0.57794,-0.471951 0.78781,-0.458338 2.13772,0.138655 1.11541,0.493288 3.86486,3.042078 5.70406,5.287767 1.87854,2.293723 2.56098,2.874548 3.62526,3.08545 0.56514,0.111991 3.24521,0.18517 5.95572,0.162619 l 4.92821,-0.041 0.57514,-0.643663 c 0.31632,-0.354015 0.86887,-0.817177 1.22789,-1.029253 0.35901,-0.212075 0.61205,-0.491672 0.56229,-0.621328 -0.0996,-0.259445 0.3673,-0.78319 2.42491,-2.720417 0.75501,-0.710841 1.30706,-1.292438 1.22677,-1.292438 -0.0803,0 0.0841,-0.162124 0.3653,-0.360276 0.28121,-0.198153 0.59154,-0.33425 0.68962,-0.302441 0.0981,0.03181 0.3045,-0.108495 0.45871,-0.31179 0.1542,-0.203296 0.28333,-0.285416 0.28694,-0.182486 0.004,0.102927 0.17553,0.03424 0.38203,-0.152638 0.2065,-0.186879 0.66248,-0.397184 1.01329,-0.467346 0.53145,-0.10629 0.76246,-0.01185 1.38496,0.566216 1.50481,1.397384 1.78541,4.710826 0.74173,8.758601 -0.55342,2.146403 -0.62037,2.737389 -0.62037,5.476682 0,2.044534 -0.0758,3.095914 -0.22688,3.146274 -0.16116,0.0537 -0.15005,0.34322 0.0384,0.99948 0.2691,0.93733 0.38981,7.08585 0.19678,10.02263 -0.0523,0.79614 -0.0174,2.14545 0.0777,2.99845 0.14258,1.27963 0.27437,1.65945 0.75343,2.1713 0.31934,0.34121 0.89044,1.17373 1.26912,1.85006 0.68058,1.21556 0.71934,1.24511 3.37412,2.57295 2.13882,1.06977 2.94405,1.6002 3.95481,2.60521 2.0749,2.06309 3.73676,4.90845 4.63511,7.93601 0.24853,0.83758 0.57985,1.76813 0.73626,2.0679 0.15641,0.29977 0.28495,0.62301 0.28565,0.71832 6.2e-4,0.0953 0.31409,0.88628 0.69642,1.75772 0.38234,0.87143 0.90932,2.23581 1.17108,3.03195 0.26177,0.79615 0.60148,1.59571 0.75493,1.77682 0.37214,0.4392 1.42938,3.37635 1.6121,4.47859 0.21329,1.28666 0.47083,1.07428 0.6269,-0.51698 0.0753,-0.76771 0.21782,-1.95417 0.31671,-2.63657 0.403,-2.78069 0.4023,-4.03652 -0.004,-7.75464 -0.23009,-2.10408 -0.52486,-4.43047 -0.65505,-5.16975 -0.57393,-3.25907 -1.43792,-7.13833 -2.16465,-9.71914 l -0.78611,-2.79166 0.0345,-4.13001 c 0.0307,-3.6717 0.096,-4.39456 0.58806,-6.51389 0.83404,-3.5921 1.34288,-4.65357 3.26192,-6.80457 1.94427,-2.179278 4.27786,-3.334302 6.73517,-3.333617 2.13656,6.2e-4 3.29246,1.031609 3.01274,2.687237 -0.14311,0.84706 -0.84309,1.59345 -2.90969,3.10257 -1.94458,1.42002 -3.98909,4.88596 -4.44725,7.53916 -0.31505,1.82449 -0.1321,5.03557 0.41442,7.27374 0.22586,0.92495 1.1962,3.76314 2.15632,6.30709 2.24705,5.95387 2.54299,6.93128 3.14726,10.39472 0.85522,4.90181 0.6423,10.00989 -0.62439,14.97955 -1.14555,4.4944 -4.42303,9.57363 -7.42038,11.49963 -1.38889,0.89245 -2.32329,1.81807 -3.753,3.71771 -1.59453,2.11863 -2.10787,2.39519 -5.26314,2.83541 -1.42981,0.19949 -3.66979,0.56308 -4.97774,0.80798 -1.70239,0.31874 -3.23005,0.44911 -5.37655,0.45882 -3.62003,0.0164 -4.86693,-0.23838 -5.92922,-1.21139 -1.00609,-0.92155 -1.9728,-0.97617 -2.32277,-0.13125 -0.30367,0.73312 -1.4346,1.63557 -2.53713,2.02457 -0.80443,0.28382 -5.99308,0.61783 -6.47786,0.417 z"
       id="path1725" /></g></svg>
